<svg xmlns="http://www.w3.org/2000/svg" xmlns:xlink="http://www.w3.org/1999/xlink" width="30" height="30" viewBox="0 0 30 30">
  <defs>
    <style>
      .cls-1 {
        fill-rule: evenodd;
        filter: url(#filter);
      }
    </style>
    <filter id="filter" x="1400.69" y="9123" width="30" height="30" filterUnits="userSpaceOnUse">
      <feFlood result="flood" flood-color="#f50"/>
      <feComposite result="composite" operator="in" in2="SourceGraphic"/>
      <feBlend result="blend" in2="SourceGraphic"/>
    </filter>
  </defs>
  <path id="Icon_" data-name="Icon " class="cls-1" d="M1415.68,9122.99a15,15,0,1,0,15,15A15,15,0,0,0,1415.68,9122.99Zm0,28.13a13.125,13.125,0,1,1,13.12-13.13A13.145,13.145,0,0,1,1415.68,9151.12Zm4.66-12.55a4.169,4.169,0,0,1,.53,2.12,4.522,4.522,0,0,1-1.1,3.1,4.789,4.789,0,0,1-3.2,1.46v2.12h-1.78v-2.11a4.648,4.648,0,0,1-4.31-4.05l2.74-.72a2.392,2.392,0,0,0,2.53,2.32,1.936,1.936,0,0,0,1.48-.5,1.653,1.653,0,0,0,.47-1.19,1.311,1.311,0,0,0-.47-1.1,8.5,8.5,0,0,0-2.1-.96,12.625,12.625,0,0,1-2.29-1,3.732,3.732,0,0,1-1.34-1.39,4.153,4.153,0,0,1-.52-2.09,4.631,4.631,0,0,1,.92-2.8,4.114,4.114,0,0,1,2.89-1.52v-1.64h1.78v1.64a4.293,4.293,0,0,1,3.85,3.37l-2.44,1c-0.48-1.38-1.22-2.06-2.22-2.06a1.59,1.59,0,0,0-1.2.46,1.5,1.5,0,0,0-.46,1.12,1.253,1.253,0,0,0,.44,1.02,7.314,7.314,0,0,0,1.88.89,17.848,17.848,0,0,1,2.48,1.09A3.921,3.921,0,0,1,1420.34,9138.57Z" transform="translate(-1400.69 -9123)"/>
</svg>
