<svg xmlns="http://www.w3.org/2000/svg" width="30.03" height="30" viewBox="0 0 30.03 30">
  <defs>
    <style>
      .cls-1 {
        fill: #f50;
        fill-rule: evenodd;
      }
    </style>
  </defs>
  <path id="Icon_" data-name="Icon " class="cls-1" d="M1425.25,9029.03l1.37-1.28a14.525,14.525,0,0,0-1.46-1.37l-1.19,1.45A13.175,13.175,0,0,1,1425.25,9029.03Zm2.03,2.84,1.66-.88a14.125,14.125,0,0,0-1.05-1.7l-1.53,1.09A13.584,13.584,0,0,1,1427.28,9031.87Zm2.48,0.95h-0.01l-1.76.65a13.154,13.154,0,1,1-5.44-6.65l0.98-1.6A14.975,14.975,0,1,0,1429.76,9032.82Zm-12.84-3.19a4.672,4.672,0,0,0-1.27,4.25l-0.1.34a1.2,1.2,0,0,1-1.5.8,1.149,1.149,0,0,1-.46-0.25l-0.3-.27a4.544,4.544,0,0,0-2.47-2.53,4.689,4.689,0,1,0,1.39,7.68,1.2,1.2,0,0,1,1.32,1.07,1.13,1.13,0,0,1,0,.26,4.7,4.7,0,0,0,5.85,7.25,4.675,4.675,0,0,0-.7-8.34l-0.27-.3a1.212,1.212,0,0,1,.1-1.7,1.357,1.357,0,0,1,.45-0.26l0.35-.1a4.684,4.684,0,0,0,5.53-3.65,4.621,4.621,0,0,0-.57-3.35,4.707,4.707,0,0,0-3.48-2.25A4.643,4.643,0,0,0,1416.92,9029.63Zm5.75,1.88h0a2.809,2.809,0,0,1-3.16,4.15l-0.25-.07-0.84.25a3.1,3.1,0,0,0-2.06,3.85,3.061,3.061,0,0,0,.65,1.15l0.59,0.66,0.23,0.09a2.761,2.761,0,0,1,1.89,2.96,2.817,2.817,0,0,1-5.6,0,2.774,2.774,0,0,1,.81-2.3l0.26-.19,0.09-.31a3.087,3.087,0,0,0-2.03-3.85,3.053,3.053,0,0,0-1.82.01l-0.3.09-0.19.26a2.814,2.814,0,1,1-3.96-4,3.269,3.269,0,0,1,.35-0.3,2.844,2.844,0,0,1,2.75-.26,2.665,2.665,0,0,1,1.52,1.66l0.08,0.23,0.66,0.59a3.1,3.1,0,0,0,4.36-.26,3.141,3.141,0,0,0,.64-1.16l0.25-.83-0.06-.26A2.817,2.817,0,0,1,1422.67,9031.51Z" transform="translate(-1400.66 -9023)"/>
</svg>
