<svg xmlns="http://www.w3.org/2000/svg" width="30" height="30.03" viewBox="0 0 30 30.03">
  <defs>
    <style>
      .cls-1 {
        fill: #f50;
        fill-rule: evenodd;
      }
    </style>
  </defs>
  <path id="Icon_" data-name="Icon " class="cls-1" d="M1415.68,8852.99a15,15,0,0,1-10.61-25.61,0.537,0.537,0,1,1,.76.76,13.9,13.9,0,1,0,2.04-1.69,0.537,0.537,0,0,1-.6-0.89A15,15,0,1,1,1415.68,8852.99Zm0-3.22a11.785,11.785,0,1,1,11.78-11.78A11.8,11.8,0,0,1,1415.68,8849.77Zm0-22.49a10.71,10.71,0,1,0,10.71,10.71A10.725,10.725,0,0,0,1415.68,8827.28Zm-0.01,13.87a0.6,0.6,0,0,1-.28-0.08l-4.95-3.06a0.534,0.534,0,0,1-.18-0.73l4.95-8.36a0.561,0.561,0,0,1,.93,0l4.95,8.36a0.534,0.534,0,0,1-.18.73l-4.95,3.06A0.6,0.6,0,0,1,1415.67,8841.15Zm-4.22-3.77,4.22,2.6,4.23-2.6-4.23-7.14Zm4.22,9.73h0a0.58,0.58,0,0,1-.42-0.2l-5.18-6.53a0.543,0.543,0,0,1,.02-0.69,0.534,0.534,0,0,1,.68-0.1l4.91,3.04,4.9-3.02a0.563,0.563,0,0,1,.69.1,0.531,0.531,0,0,1,.01.69l-5.19,6.51A0.547,0.547,0,0,1,1415.67,8847.11Zm-2.84-4.99,2.85,3.59,2.85-3.58-2.58,1.58a0.516,0.516,0,0,1-.56,0Z" transform="translate(-1400.69 -8822.97)"/>
</svg>
