<svg xmlns="http://www.w3.org/2000/svg" width="50" height="38" viewBox="0 0 50 38">
  <defs>
    <style>
      .cls-1 {
        fill: #f50;
        fill-rule: evenodd;
      }
    </style>
  </defs>
  <path id="Icon_" data-name="Icon " class="cls-1" d="M1540.53,2682.69a6.254,6.254,0,0,1,6.18.27,25.084,25.084,0,0,1,2.72,2.44c4.52,0.02,9.04,0,13.57.01v0.84c-0.69,0-1.38-.01-2.07,0-0.03,4.72-.01,9.43-0.01,14.15H1563c0,0.28-.01.56-0.01,0.84-3.14.02-6.28-.02-9.42,0.01,1.01,1.01,2.01,2.02,3.02,3.02a3.358,3.358,0,0,1-1.26,5.56,3.587,3.587,0,0,1-2.76-.23,3.386,3.386,0,0,1-2.36,3.59,3.419,3.419,0,0,0-5.01,3.34,3.448,3.448,0,0,1-2.63-.27,3.5,3.5,0,0,1-1.05,2.86,3.411,3.411,0,0,1-4.33.2c-0.67-.55-1.23-1.22-1.87-1.81a3.422,3.422,0,0,1-3.1-1.55,3.57,3.57,0,0,1-.42-2.73,3.391,3.391,0,0,1-4.16-4.16,12.857,12.857,0,0,0-8-5.74,4.678,4.678,0,0,1-.5-1.98c-0.85-.89-1.73-1.74-2.59-2.61-1.18.01-2.36,0.01-3.55,0v-0.84c0.97,0,1.94.01,2.91,0,0.01-4.72,0-9.43.01-14.15H1513v-0.84c7.02,0.01,14.04-.02,21.06.02,1.52,0.08,2.5,1.33,3.51,2.3A12.16,12.16,0,0,1,1540.53,2682.69Zm-0.99,1.74c-2.68,2.7-5.38,5.36-8.05,8.06a5.5,5.5,0,0,0,7.14-.03c1.52-1.45,2.97-2.97,4.47-4.44l0.58,0.61c-0.46.45-.92,0.91-1.37,1.36q5.22,5.22,10.43,10.42c0.17,0,.5-0.01.67-0.01v-14.15c-1.45-.03-2.91.06-4.36-0.04-1.09-.89-1.91-2.14-3.21-2.78A5.442,5.442,0,0,0,1539.54,2684.43Zm-22.79-.67q0.015,7.05.01,14.08c0.94,0.78,1.75,1.71,2.63,2.57a13.747,13.747,0,0,1,2.57-2.92,14.686,14.686,0,0,1,2.37-2.16,3.386,3.386,0,0,1,4.81,3.9,3.664,3.664,0,0,1,2.48.28,3.238,3.238,0,0,0,3.99,4.08,6.178,6.178,0,0,0,5.77,5.7,3.479,3.479,0,0,1-.71,4.04c0.91,0.78,1.58,1.88,2.71,2.36a2.526,2.526,0,0,0,3.35-2.4c0.08-1.35-1.18-2.14-1.98-3.03,0.19-.2.39-0.39,0.58-0.59a23.345,23.345,0,0,0,2.72,2.55,2.553,2.553,0,0,0,3.7-2.24c0.04-1.35-1.17-2.15-1.99-3.04l0.58-.58c0.79,0.75,1.52,1.56,2.34,2.29a2.521,2.521,0,0,0,3.32-3.78c-4.75-4.76-9.52-9.5-14.26-14.27a39.825,39.825,0,0,1-3.23,3.01,6.3,6.3,0,0,1-8-.93,0.63,0.63,0,0,1,.3-0.71q3.09-3.06,6.14-6.14c-0.89-.86-1.73-2.04-3.09-2.07Q1525.31,2683.745,1516.75,2683.76Zm37.5,2.49v14.14c1.94,0.02,3.88,0,5.83.01q-0.015-7.08,0-14.15C1558.13,2686.24,1556.19,2686.26,1554.25,2686.25Zm-28.92,9.61a2.574,2.574,0,0,0-1.31.76c-1.12,1.11-2.23,2.22-3.33,3.35a2.515,2.515,0,0,0-.01,3.38,2.54,2.54,0,0,0,3.58.16q1.725-1.7,3.42-3.41A2.527,2.527,0,0,0,1525.33,2695.86Zm4.17,4.16a2.574,2.574,0,0,0-1.31.76c-1.09,1.07-2.16,2.16-3.24,3.25a2.5,2.5,0,0,0-.54,2.8,2.542,2.542,0,0,0,3.36,1.29,15.229,15.229,0,0,0,2.52-2.3c0.88-1,2.32-1.83,2.29-3.33A2.545,2.545,0,0,0,1529.5,2700.02Zm4.15,4.17a2.682,2.682,0,0,0-1.31.78c-1.1,1.11-2.23,2.21-3.32,3.33a2.513,2.513,0,0,0-.01,3.37,2.542,2.542,0,0,0,3.58.18q1.725-1.71,3.43-3.43A2.525,2.525,0,0,0,1533.65,2704.19Zm4.18,4.16a2.579,2.579,0,0,0-1.32.77c-1.12,1.11-2.23,2.21-3.32,3.33a2.509,2.509,0,0,0-.35,2.91,2.546,2.546,0,0,0,3.42,1.01,24.577,24.577,0,0,0,2.47-2.32c0.86-.97,2.22-1.78,2.18-3.23A2.54,2.54,0,0,0,1537.83,2708.35Zm-1.54,8.94c0.78,0.7,1.42,1.71,2.54,1.85a2.544,2.544,0,0,0,2.91-2.73c-0.05-1.1-.99-1.78-1.67-2.5C1538.78,2715,1537.81,2716.51,1536.29,2717.29Zm20.46-19.8c0.28,0,.56-0.01.84-0.02-0.01.28-.01,0.57-0.01,0.85-0.29,0-.57.01-0.86,0.01Z" transform="translate(-1513 -2682)"/>
</svg>
