<svg xmlns="http://www.w3.org/2000/svg" width="50" height="50" viewBox="0 0 50 50">
  <defs>
    <style>
      .cls-1 {
        fill: #f50;
        fill-rule: evenodd;
      }
    </style>
  </defs>
  <path id="Icon_" data-name="Icon " class="cls-1" d="M1833.15,2694.51l3.13,1.56a0.806,0.806,0,0,0,.7,0l3.12-1.56a0.782,0.782,0,0,0,.41-0.54,0.758,0.758,0,0,0-.15-0.65l-3.12-3.91a0.809,0.809,0,0,0-1.22,0l-3.13,3.91a0.792,0.792,0,0,0-.15.65A0.782,0.782,0,0,0,1833.15,2694.51Zm3.48-3.36,1.91,2.39-1.91.96-1.91-.96Zm-0.65,10.12a0.772,0.772,0,0,0,.65.35,0.785,0.785,0,0,0,.65-0.35l3.12-4.69a0.782,0.782,0,0,0-.06-0.95,0.794,0.794,0,0,0-.94-0.18l-2.77,1.39-2.78-1.39a0.782,0.782,0,0,0-1,1.13Zm0.3-2.86a0.784,0.784,0,0,0,.7,0l0.49-.24-0.84,1.26-0.85-1.26Zm0.34,18.85h-0.06a9.309,9.309,0,0,0-4.64,1.27l-3.91-3.47a0.8,0.8,0,0,0,.03-0.15v-7.68l4.09-3.64a9.305,9.305,0,0,0,4.49,1.15h0.06a9.37,9.37,0,0,0-.06-18.74h-0.06a9.354,9.354,0,0,0-5.77,16.69l-3.81,3.39-5.62-2.81a0.784,0.784,0,0,0-.7,0l-5.78,2.89-3.79-3.37a8.491,8.491,0,0,0,.96-0.84,9.362,9.362,0,0,0-6.67-15.95h-0.06a9.37,9.37,0,0,0,.06,18.74h0.06a9.3,9.3,0,0,0,4.29-1.07l4.25,3.77v7.43l-4.04,3.58a9.356,9.356,0,0,0-4.56-1.19h-0.06a9.37,9.37,0,0,0,.06,18.74h0.06a9.365,9.365,0,0,0,5.84-16.65l3.83-3.4,5.55,2.78a0.806,0.806,0,0,0,.7,0l5.39-2.7,3.85,3.42a7.449,7.449,0,0,0-.65.6,9.362,9.362,0,0,0,6.67,15.95h0.06A9.37,9.37,0,0,0,1836.62,2717.26Zm-7.82-21.84a7.819,7.819,0,0,1,7.77-7.86h0.05a7.81,7.81,0,0,1,.05,15.62h-0.05A7.825,7.825,0,0,1,1828.8,2695.42Zm-23.37,7.76h-0.05a7.81,7.81,0,0,1-.05-15.62h0.05A7.81,7.81,0,0,1,1805.43,2703.18Zm7.77,23.4a7.836,7.836,0,0,1-7.77,7.86h-0.05a7.81,7.81,0,0,1-.05-15.62h0.05A7.825,7.825,0,0,1,1813.2,2726.58Zm7.81-21.74,4.5,2.25-4.5,2.25-4.51-2.25Zm-5.47,3.52,4.69,2.34v6.07l-4.69-2.35v-6.06Zm10.93,6.06-4.68,2.35v-6.07l4.68-2.34v6.06Zm10.2,20.02h-0.05a7.779,7.779,0,0,1-6.23-3.12h3.11a0.775,0.775,0,0,0,.78-0.78v-3.76l1.62,4.05a0.8,0.8,0,0,0,.73.49,0.784,0.784,0,0,0,.72-0.49l1.62-4.05v3.76a0.781,0.781,0,0,0,.78.78h3.11a8.36,8.36,0,0,1-.68.79A7.759,7.759,0,0,1,1836.67,2734.44Zm7.11-4.68h-3.25v-7.04a0.777,0.777,0,0,0-1.5-.29l-2.4,6-2.4-6a0.765,0.765,0,0,0-.87-0.47,0.78,0.78,0,0,0-.64.76v7.04h-3.26a7.944,7.944,0,0,1-.66-3.08,7.819,7.819,0,0,1,7.77-7.86h0.05a7.825,7.825,0,0,1,7.82,7.76A7.977,7.977,0,0,1,1843.78,2729.76Zm-34.66-37.81a0.784,0.784,0,0,0-.61-1.27h-2.35l0.01-1.56-1.57-.01v1.57h-3.12v1.56h5.4l-5.23,6.55a0.784,0.784,0,0,0,.61,1.27h2.34v1.56h1.56v-1.56h3.13v-1.56h-5.4Zm-4.52,14.36v9.38h1.57v-3.91h3.12v-1.56h-3.12v-3.91h-1.57Zm6.25,3.91h1.56v1.56h-1.56v-1.56Zm26.56,5.47v-9.38h-1.56v3.91h-3.13v1.56h3.13v3.91h1.56Zm-7.81-5.47h1.56v1.56h-1.56v-1.56Zm-9.37-11.72h1.56v-3.13h3.9v-1.56h-9.37v1.56h3.91v3.13Zm0,1.56h1.56v1.56h-1.56v-1.56Zm1.56,23.44h-1.56v3.13h-3.91v1.56h9.37v-1.56h-3.9v-3.13Zm-1.56-3.12h1.56v1.56h-1.56v-1.56Zm-12.5,2.34h-0.78v-1.56h-1.56v1.56h-0.79v-1.56h-1.56v1.56h-2.34v1.56h0.78v4.69h-0.78v1.57h2.34v1.56h1.56v-1.56h0.79v1.56h1.56v-1.56h0.78a2.352,2.352,0,0,0,2.34-2.35,2.3,2.3,0,0,1,0-3.12A2.345,2.345,0,0,0,1807.73,2722.72Zm-4.69,1.56h4.69a0.79,0.79,0,0,1,.78.79,0.781,0.781,0,0,1-.78.78h-4.69v-1.57Zm4.69,4.69h-4.69v-1.56h4.69A0.78,0.78,0,0,1,1807.73,2728.97Z" transform="translate(-1796 -2686)"/>
</svg>
